<svg version="1.1" xmlns="http://www.w3.org/2000/svg" xmlns:xlink="http://www.w3.org/1999/xlink" width="72.27193" height="36.96772" viewBox="0,0,72.27193,36.96772"><g transform="translate(-233.17873,-162.88562)"><g stroke-miterlimit="10"><g><path d="M239.15558,183.5628c0,0 -0.01141,2.29107 -0.02927,5.57624c-0.01552,2.85452 -0.03592,6.45958 -0.05793,9.96431c-0.0055,0.87621 -0.74908,-15.12242 -0.74908,-15.12242" fill="none" stroke="#ffffff" stroke-width="1.5" stroke-linecap="round"/><path d="M234.48628,188.23207v-19.30437h8.22352v19.30437z" fill="#fff047" stroke="none" stroke-width="0" stroke-linecap="butt"/><path d="M243.07567,164.89068h-9.14693" fill="none" stroke="#000000" stroke-width="1.5" stroke-linecap="round"/><path d="M238.80712,164.88563v3.55423" fill="none" stroke="#000000" stroke-width="1.5" stroke-linecap="round"/><path d="M242.36137,171.99409h-2.71795" fill="none" stroke="#000000" stroke-width="1.5" stroke-linecap="round"/><path d="M242.29163,174.36359h-2.57856" fill="none" stroke="#000000" stroke-width="1.5" stroke-linecap="round"/><path d="M239.85249,176.45431h2.57856" fill="none" stroke="#000000" stroke-width="1.5" stroke-linecap="round"/><path d="M239.99184,178.96318h2.57856" fill="none" stroke="#000000" stroke-width="1.5" stroke-linecap="round"/><path d="M239.92215,181.40237h2.36949" fill="none" stroke="#000000" stroke-width="1.5" stroke-linecap="round"/><path d="M239.92216,183.63248h2.57856" fill="none" stroke="#000000" stroke-width="1.5" stroke-linecap="round"/><path d="M234.4166,188.30175v-19.37406h8.29321v19.37406z" fill="none" stroke="#000000" stroke-width="1.5" stroke-linecap="butt"/></g><g><path d="M254.78058,183.0628c0,0 -0.01141,2.29107 -0.02927,5.57624c-0.01552,2.85452 -0.03592,6.45958 -0.05793,9.96431c-0.0055,0.87621 -0.74908,-15.12242 -0.74908,-15.12242" fill="none" stroke="#ffffff" stroke-width="1.5" stroke-linecap="round"/><path d="M250.11127,187.73207v-19.30437h8.22352v19.30437z" fill="#fff047" stroke="none" stroke-width="0" stroke-linecap="butt"/><path d="M249.55374,164.39068h9.14693" fill="none" stroke="#000000" stroke-width="1.5" stroke-linecap="round"/><path d="M254.43212,164.38564v3.55423" fill="none" stroke="#000000" stroke-width="1.5" stroke-linecap="round"/><path d="M255.26842,171.49409h2.71795" fill="none" stroke="#000000" stroke-width="1.5" stroke-linecap="round"/><path d="M255.33806,173.86359h2.57856" fill="none" stroke="#000000" stroke-width="1.5" stroke-linecap="round"/><path d="M255.47749,175.95431h2.57856" fill="none" stroke="#000000" stroke-width="1.5" stroke-linecap="round"/><path d="M258.1954,178.46318h-2.57856" fill="none" stroke="#000000" stroke-width="1.5" stroke-linecap="round"/><path d="M257.91661,180.90237h-2.36949" fill="none" stroke="#000000" stroke-width="1.5" stroke-linecap="round"/><path d="M255.54714,183.13248h2.57856" fill="none" stroke="#000000" stroke-width="1.5" stroke-linecap="round"/><path d="M250.0416,187.80175v-19.37406h8.29321v19.37406z" fill="none" stroke="#000000" stroke-width="1.5" stroke-linecap="butt"/></g><g><path d="M269.28056,182.8128c0,0 -0.01141,2.29107 -0.02927,5.57624c-0.01552,2.85452 -0.03592,6.45958 -0.05793,9.96431c-0.0055,0.87621 -0.74908,-15.12242 -0.74908,-15.12242" fill="none" stroke="#ffffff" stroke-width="1.5" stroke-linecap="round"/><path d="M264.61125,187.48207v-19.30437h8.22352v19.30437z" fill="#fff047" stroke="none" stroke-width="0" stroke-linecap="butt"/><path d="M264.05374,164.14068h9.14693" fill="none" stroke="#000000" stroke-width="1.5" stroke-linecap="round"/><path d="M268.9321,167.68987v-3.55423" fill="none" stroke="#000000" stroke-width="1.5" stroke-linecap="round"/><path d="M272.48634,171.24409h-2.71795" fill="none" stroke="#000000" stroke-width="1.5" stroke-linecap="round"/><path d="M269.83806,173.61359h2.57856" fill="none" stroke="#000000" stroke-width="1.5" stroke-linecap="round"/><path d="M269.97747,175.70431h2.57856" fill="none" stroke="#000000" stroke-width="1.5" stroke-linecap="round"/><path d="M272.69539,178.21318h-2.57856" fill="none" stroke="#000000" stroke-width="1.5" stroke-linecap="round"/><path d="M272.41661,180.65237h-2.36949" fill="none" stroke="#000000" stroke-width="1.5" stroke-linecap="round"/><path d="M270.04714,182.88248h2.57856" fill="none" stroke="#000000" stroke-width="1.5" stroke-linecap="round"/><path d="M264.54159,187.55175v-19.37406h8.29321v19.37406z" fill="none" stroke="#000000" stroke-width="1.5" stroke-linecap="butt"/></g><g><path d="M285.03058,182.4378c0,0 -0.01141,2.29107 -0.02927,5.57624c-0.01552,2.85452 -0.03592,6.45958 -0.05793,9.96431c-0.0055,0.87621 -0.74908,-15.12242 -0.74908,-15.12242" fill="none" stroke="#ffffff" stroke-width="1.5" stroke-linecap="round"/><path d="M280.36127,187.10707v-19.30437h8.22352v19.30437z" fill="#fff047" stroke="none" stroke-width="0" stroke-linecap="butt"/><path d="M288.95067,163.76568h-9.14693" fill="none" stroke="#000000" stroke-width="1.5" stroke-linecap="round"/><path d="M284.6821,167.31486v-3.55423" fill="none" stroke="#000000" stroke-width="1.5" stroke-linecap="round"/><path d="M288.23636,170.86909h-2.71795" fill="none" stroke="#000000" stroke-width="1.5" stroke-linecap="round"/><path d="M288.16661,173.23859h-2.57856" fill="none" stroke="#000000" stroke-width="1.5" stroke-linecap="round"/><path d="M285.72749,175.32931h2.57856" fill="none" stroke="#000000" stroke-width="1.5" stroke-linecap="round"/><path d="M285.86683,177.83818h2.57856" fill="none" stroke="#000000" stroke-width="1.5" stroke-linecap="round"/><path d="M285.79715,180.27737h2.36949" fill="none" stroke="#000000" stroke-width="1.5" stroke-linecap="round"/><path d="M288.37572,182.50748h-2.57856" fill="none" stroke="#000000" stroke-width="1.5" stroke-linecap="round"/><path d="M280.29159,187.17675v-19.37406h8.29321v19.37406z" fill="none" stroke="#000000" stroke-width="1.5" stroke-linecap="butt"/></g><g><path d="M300.78058,182.3128c0,0 -0.01141,2.29107 -0.02927,5.57624c-0.01552,2.85452 -0.03592,6.45958 -0.05793,9.96431c-0.0055,0.87621 -0.74908,-15.12242 -0.74908,-15.12242" fill="none" stroke="#ffffff" stroke-width="1.5" stroke-linecap="round"/><path d="M296.11128,186.98207v-19.30437h8.22352v19.30437z" fill="#fff047" stroke="none" stroke-width="0" stroke-linecap="butt"/><path d="M304.70067,163.64068h-9.14693" fill="none" stroke="#000000" stroke-width="1.5" stroke-linecap="round"/><path d="M300.43212,163.63563v3.55423" fill="none" stroke="#000000" stroke-width="1.5" stroke-linecap="round"/><path d="M303.98637,170.74409h-2.71795" fill="none" stroke="#000000" stroke-width="1.5" stroke-linecap="round"/><path d="M303.91663,173.11359h-2.57856" fill="none" stroke="#000000" stroke-width="1.5" stroke-linecap="round"/><path d="M301.47749,175.20431h2.57856" fill="none" stroke="#000000" stroke-width="1.5" stroke-linecap="round"/><path d="M301.61684,177.71318h2.57856" fill="none" stroke="#000000" stroke-width="1.5" stroke-linecap="round"/><path d="M301.54715,180.15237h2.36949" fill="none" stroke="#000000" stroke-width="1.5" stroke-linecap="round"/><path d="M301.54716,182.38248h2.57856" fill="none" stroke="#000000" stroke-width="1.5" stroke-linecap="round"/><path d="M296.0416,187.05175v-19.37406h8.29321v19.37406z" fill="none" stroke="#000000" stroke-width="1.5" stroke-linecap="butt"/></g></g></g></svg>